<svg width="81" height="81" viewBox="0 0 81 81" fill="none" xmlns="http://www.w3.org/2000/svg">
<path d="M19.38 38.4204C19.14 38.1804 18.9 37.9404 18.66 37.7004C18.98 38.0204 19.14 38.2604 19.38 38.4204Z" fill="url(#paint0_linear_46_563)"/>
<path d="M20.98 39.6996C20.82 39.5396 20.58 39.4596 20.42 39.2996C20.66 39.4596 20.82 39.6196 20.98 39.6996Z" fill="url(#paint1_linear_46_563)"/>
<path d="M20.18 39.1399C20.02 38.9799 19.86 38.8199 19.62 38.6599C19.78 38.8199 20.02 38.9799 20.18 39.1399Z" fill="url(#paint2_linear_46_563)"/>
<path d="M22.1 40.3401C21.78 40.1801 21.54 40.0201 21.22 39.8601C21.54 40.0201 21.86 40.1801 22.1 40.3401Z" fill="url(#paint3_linear_46_563)"/>
<path d="M23.06 40.7401C22.74 40.6601 22.5 40.5001 22.18 40.3401C22.42 40.5001 22.74 40.6601 23.06 40.7401Z" fill="url(#paint4_linear_46_563)"/>
<path d="M23.94 41.0598C23.7 40.9798 23.54 40.8998 23.3 40.8198C23.54 40.8998 23.78 40.9798 23.94 41.0598Z" fill="url(#paint5_linear_46_563)"/>
<path d="M17.94 36.6601C17.78 36.5001 17.7 36.2601 17.54 36.1001C17.62 36.3401 17.78 36.5001 17.94 36.6601Z" fill="url(#paint6_linear_46_563)"/>
<path d="M17.38 35.7799C17.3 35.5399 17.14 35.3799 17.06 35.1399C17.14 35.3799 17.22 35.6199 17.38 35.7799Z" fill="url(#paint7_linear_46_563)"/>
<path d="M16.9 34.8201C16.74 34.5001 16.66 34.1801 16.5 33.8601C16.58 34.1801 16.74 34.5801 16.9 34.8201Z" fill="url(#paint8_linear_46_563)"/>
<path d="M18.7399 37.6999C18.4999 37.4599 18.3399 37.2199 18.0999 36.8999C18.2599 37.2199 18.4999 37.4599 18.7399 37.6999Z" fill="url(#paint9_linear_46_563)"/>
<path d="M38.1 32.42C38.42 30.58 38.34 28.66 37.7 26.74C37.62 26.42 37.46 26.1 37.3 25.78C37.46 26.1 37.54 26.42 37.7 26.74C38.42 28.66 38.5 30.66 38.1 32.42Z" fill="url(#paint10_linear_46_563)"/>
<path d="M24.98 41.2999C24.74 41.2199 24.5 41.2199 24.26 41.1399C24.5 41.2199 24.74 41.2999 24.98 41.2999Z" fill="url(#paint11_linear_46_563)"/>
<path d="M25.94 19.2199C26.18 19.2199 26.42 19.1399 26.66 19.1399C26.42 19.1399 26.18 19.1399 25.94 19.2199Z" fill="url(#paint12_linear_46_563)"/>
<path d="M36.34 23.9402C36.5 24.1002 36.58 24.3402 36.74 24.5802C36.58 24.3402 36.5 24.1802 36.34 23.9402Z" fill="url(#paint13_linear_46_563)"/>
<path d="M36.0999 23.6199C36.0999 23.6199 36.0999 23.6999 36.1799 23.6999L36.0999 23.6199Z" fill="url(#paint14_linear_46_563)"/>
<path d="M36.9001 24.8999C36.9801 25.1399 37.1401 25.2999 37.2201 25.5399C37.1401 25.2999 36.9801 25.0599 36.9001 24.8999Z" fill="url(#paint15_linear_46_563)"/>
<path d="M26.18 41.4601C25.86 41.4601 25.62 41.3801 25.3 41.3801C25.54 41.4601 25.86 41.4601 26.18 41.4601Z" fill="url(#paint16_linear_46_563)"/>
<path d="M32.0999 20.3401C32.4199 20.5001 32.6599 20.6601 32.9799 20.8201C32.7399 20.6601 32.4199 20.4201 32.0999 20.3401Z" fill="url(#paint17_linear_46_563)"/>
<path d="M29.3 19.3801C29.54 19.4601 29.78 19.4601 30.02 19.5401C29.7 19.4601 29.54 19.3801 29.3 19.3801Z" fill="url(#paint18_linear_46_563)"/>
<path d="M31.22 19.9402C31.54 20.0202 31.78 20.1802 32.1 20.3402C31.86 20.1802 31.54 20.0202 31.22 19.9402Z" fill="url(#paint19_linear_46_563)"/>
<path d="M28.02 19.1399C28.34 19.1399 28.66 19.2199 28.98 19.2999C28.66 19.2199 28.34 19.2199 28.02 19.1399Z" fill="url(#paint20_linear_46_563)"/>
<path d="M30.26 19.6199C30.5 19.6999 30.74 19.7799 30.9 19.8599C30.74 19.6999 30.5 19.6199 30.26 19.6199Z" fill="url(#paint21_linear_46_563)"/>
<path d="M29.62 57.3C29.7 57.22 29.7 57.06 29.78 56.98C29.7 57.14 29.7 57.22 29.62 57.3Z" fill="url(#paint22_linear_46_563)"/>
<path d="M29.38 57.9403C29.46 57.7803 29.46 57.7003 29.54 57.5403C29.46 57.7003 29.38 57.7803 29.38 57.9403Z" fill="url(#paint23_linear_46_563)"/>
<path d="M31.62 54.9001C31.78 54.8201 31.94 54.6601 32.1 54.5801C31.94 54.7401 31.78 54.8201 31.62 54.9001Z" fill="url(#paint24_linear_46_563)"/>
<path d="M30.34 56.2602C30.42 56.1802 30.5 56.1002 30.58 55.9402C30.42 56.0202 30.34 56.1802 30.34 56.2602Z" fill="url(#paint25_linear_46_563)"/>
<path d="M29.94 56.7399C30.02 56.6599 30.1 56.4999 30.18 56.4199C30.1 56.5799 30.02 56.6599 29.94 56.7399Z" fill="url(#paint26_linear_46_563)"/>
<path d="M31.14 55.2998C31.22 55.2198 31.38 55.1398 31.46 55.0598C31.38 55.1398 31.3 55.2198 31.14 55.2998Z" fill="url(#paint27_linear_46_563)"/>
<path d="M53.94 35.1399C53.94 35.1399 54.02 35.1399 54.02 35.2199C54.02 35.1399 54.02 35.1399 53.94 35.1399Z" fill="url(#paint28_linear_46_563)"/>
<path d="M55.54 36.5801C55.54 36.6601 55.62 36.6601 55.62 36.7401C55.62 36.6601 55.62 36.6601 55.54 36.5801Z" fill="url(#paint29_linear_46_563)"/>
<path d="M29.14 58.5802C29.14 58.4202 29.22 58.2602 29.3 58.1802C29.22 58.3402 29.14 58.5002 29.14 58.5802Z" fill="url(#paint30_linear_46_563)"/>
<path d="M62.74 50.5796L56.02 37.2996L62.74 50.5796Z" fill="url(#paint31_linear_46_563)"/>
<path d="M32.9 54.18C33.06 54.1 33.14 54.1 33.3 54.02C33.22 54.1 33.06 54.18 32.9 54.18Z" fill="url(#paint32_linear_46_563)"/>
<path d="M34.82 53.7001C34.98 53.7001 35.06 53.7001 35.22 53.7001C35.06 53.6201 34.98 53.7001 34.82 53.7001Z" fill="url(#paint33_linear_46_563)"/>
<path d="M33.54 53.9401C33.7 53.8601 33.78 53.8601 33.94 53.8601C33.78 53.8601 33.7 53.9401 33.54 53.9401Z" fill="url(#paint34_linear_46_563)"/>
<path d="M36.7399 53.6999C36.4999 53.6999 36.3399 53.6199 36.0999 53.6199C36.3399 53.6199 36.4999 53.6199 36.7399 53.6999Z" fill="url(#paint35_linear_46_563)"/>
<path d="M49.54 34.6599L43.7 36.6599L49.54 34.6599Z" fill="url(#paint36_linear_46_563)"/>
<path d="M23.62 19.7001C23.94 19.6201 24.26 19.4601 24.66 19.3801C24.26 19.5401 23.94 19.6201 23.62 19.7001Z" fill="url(#paint37_linear_46_563)"/>
<path d="M27.14 45.5396C27.78 45.5396 28.5 45.4596 29.14 45.3796L29.3 45.5396L32.74 50.0196C28.74 51.2196 25.7 54.5796 25.06 58.8996C24.74 61.0596 26.26 63.0596 28.34 63.3796L46.5 66.3396C46.74 66.3396 46.9 66.4196 47.14 66.4196C48.02 66.4196 48.82 66.0996 49.54 65.6196L65.22 53.6996C66.74 52.4996 67.22 50.4196 66.34 48.7396L59.62 35.4596C58.02 32.3396 54.82 30.3396 51.3 30.3396C50.26 30.3396 49.22 30.4996 48.26 30.8196L42.1 32.9796C42.5 30.5796 42.42 28.0196 41.54 25.4596C41.06 24.0196 40.34 22.6596 39.46 21.4596C42.5 19.8596 45.86 18.8196 49.38 18.4196C50.5 18.3396 51.3 17.3796 51.14 16.2596C51.06 15.1396 50.1 14.3396 48.98 14.4996C44.5 14.8996 40.34 16.3396 36.58 18.4996C33.94 16.3396 30.58 15.1396 27.06 15.1396C25.46 15.1396 23.78 15.3796 22.26 15.9396C18.42 17.2196 15.3 19.9396 13.46 23.5396C11.62 27.1396 11.38 31.2996 12.66 35.1396C14.82 41.3796 20.58 45.5396 27.14 45.5396ZM49.54 34.6596C49.78 34.5796 50.1 34.4996 50.34 34.4196H50.42C50.66 34.3396 50.9 34.3396 51.22 34.3396H51.3C51.3 34.3396 51.3 34.3396 51.38 34.3396C51.62 34.3396 51.78 34.3396 52.02 34.4196H52.1C52.26 34.4196 52.5 34.4996 52.66 34.4996C52.74 34.4996 52.74 34.4996 52.82 34.4996C53.06 34.5796 53.22 34.6596 53.38 34.7396C53.46 34.7396 53.46 34.7396 53.46 34.8196C53.62 34.8996 53.78 34.9796 53.94 35.0596C53.94 35.0596 54.02 35.0596 54.02 35.1396C54.18 35.2196 54.34 35.3796 54.5 35.5396L54.58 35.6196C54.74 35.7796 54.9 35.8596 54.98 36.0196C54.98 36.0196 54.98 36.0196 55.06 36.0996C55.22 36.2596 55.38 36.4196 55.46 36.5796C55.46 36.6596 55.54 36.6596 55.54 36.7396C55.7 36.8996 55.78 37.1396 55.86 37.2996L62.58 50.5796L47.06 62.4196L28.9 59.4596C28.9 59.2196 28.98 58.9796 29.06 58.8196C29.06 58.7396 29.06 58.6596 29.14 58.5796C29.14 58.4196 29.22 58.2596 29.3 58.1796C29.3 58.0996 29.38 58.0196 29.38 57.9396C29.46 57.7796 29.46 57.6996 29.54 57.5396C29.54 57.4596 29.62 57.3796 29.62 57.2996C29.7 57.2196 29.7 57.0596 29.78 56.9796C29.86 56.8996 29.86 56.8196 29.94 56.7396C30.02 56.6596 30.1 56.4996 30.18 56.4196C30.26 56.3396 30.26 56.2596 30.34 56.1796C30.42 56.0996 30.5 56.0196 30.58 55.8596C30.66 55.7796 30.66 55.6996 30.74 55.6996C30.82 55.6196 30.9 55.5396 30.98 55.4596C31.06 55.3796 31.06 55.3796 31.14 55.2996C31.22 55.2196 31.38 55.1396 31.46 55.0596C31.54 54.9796 31.54 54.9796 31.62 54.8996C31.78 54.8196 31.94 54.6596 32.1 54.5796C32.1 54.5796 32.1 54.5796 32.18 54.5796C32.34 54.4996 32.58 54.3396 32.74 54.2596C32.82 54.2596 32.9 54.1796 32.9 54.1796C33.06 54.0996 33.14 54.0996 33.3 54.0196C33.38 54.0196 33.46 53.9396 33.54 53.9396C33.7 53.8596 33.78 53.8596 33.94 53.8596C34.02 53.8596 34.1 53.7796 34.18 53.7796C34.34 53.7796 34.42 53.6996 34.58 53.6996C34.66 53.6996 34.74 53.6996 34.82 53.6996C34.98 53.6996 35.06 53.6996 35.22 53.6996C35.3 53.6996 35.38 53.6996 35.46 53.6996C35.54 53.6996 35.54 53.6996 35.62 53.6996C35.7 53.6996 35.78 53.6996 35.86 53.6996C35.94 53.6996 36.02 53.6996 36.02 53.6996C36.26 53.6996 36.42 53.6996 36.66 53.7796L40.9 54.4996L39.78 53.0596L32.34 43.2996L30.66 41.0596L24.5 32.9796C24.1 32.4196 23.86 31.6996 23.78 31.0596C23.78 30.8196 23.78 30.5796 23.78 30.4196C23.94 29.5396 24.34 28.6596 25.14 28.0996C25.78 27.6196 26.5 27.3796 27.3 27.3796C28.34 27.3796 29.38 27.8596 30.1 28.7396L36.26 36.8196L37.78 38.8196L43.62 36.8196L49.54 34.6596ZM16.1 28.4196C16.18 28.0996 16.26 27.6996 16.34 27.3796C17.3 23.9396 19.94 20.9796 23.62 19.7796C23.94 19.6996 24.26 19.5396 24.66 19.4596C24.74 19.4596 24.9 19.3796 24.98 19.3796C25.22 19.2996 25.46 19.2996 25.7 19.2196C25.78 19.2196 25.94 19.2196 26.02 19.1396C26.26 19.1396 26.5 19.0596 26.74 19.0596C26.82 19.0596 26.98 19.0596 27.06 19.0596C27.14 19.0596 27.14 19.0596 27.22 19.0596C27.46 19.0596 27.78 19.0596 28.02 19.0596C28.02 19.0596 28.02 19.0596 28.1 19.0596C28.42 19.0596 28.74 19.1396 29.06 19.2196C29.14 19.2196 29.22 19.2196 29.38 19.2996C29.62 19.3796 29.86 19.3796 30.1 19.4596C30.18 19.4596 30.34 19.5396 30.42 19.5396C30.66 19.6196 30.9 19.6996 31.06 19.7796C31.14 19.7796 31.22 19.8596 31.38 19.8596C31.7 19.9396 31.94 20.0996 32.26 20.2596C32.58 20.4196 32.82 20.5796 33.14 20.7396C33.22 20.8196 33.3 20.8196 33.38 20.8996C33.54 21.0596 33.78 21.1396 33.94 21.2996C34.02 21.3796 34.1 21.4596 34.18 21.5396C34.34 21.6996 34.5 21.8596 34.74 22.0196C34.82 22.0996 34.9 22.1796 34.98 22.2596C35.22 22.4996 35.46 22.7396 35.7 22.9796C35.86 23.2196 36.1 23.4596 36.26 23.6996C36.26 23.6996 36.26 23.7796 36.34 23.7796C36.42 23.8596 36.42 23.9396 36.5 24.0196C36.66 24.1796 36.74 24.4196 36.9 24.6596C36.98 24.7396 36.98 24.8996 37.06 24.9796C37.14 25.2196 37.3 25.3796 37.38 25.6196C37.46 25.6996 37.46 25.7796 37.54 25.9396C37.7 26.2596 37.78 26.5796 37.94 26.8996C38.58 28.8196 38.66 30.7396 38.34 32.5796L33.54 26.2596C32.1 24.4196 29.86 23.2996 27.54 23.2996C25.86 23.2996 24.34 23.8596 22.98 24.8196C19.7 27.2996 19.06 32.0196 21.54 35.2996L26.26 41.5396C25.94 41.5396 25.7 41.4596 25.38 41.4596C25.3 41.4596 25.22 41.4596 25.06 41.3796C24.82 41.2996 24.58 41.2996 24.34 41.2196C24.26 41.2196 24.1 41.1396 24.02 41.1396C23.78 41.0596 23.62 40.9796 23.38 40.8996C23.3 40.8996 23.22 40.8196 23.06 40.8196C22.74 40.7396 22.5 40.5796 22.18 40.4196C21.86 40.2596 21.62 40.0996 21.3 39.9396C21.22 39.8596 21.14 39.8596 21.06 39.7796C20.9 39.6196 20.66 39.5396 20.5 39.3796C20.42 39.2996 20.34 39.2196 20.26 39.1396C20.1 38.9796 19.94 38.8196 19.7 38.6596C19.62 38.5796 19.54 38.4996 19.46 38.4196C19.22 38.1796 18.98 37.9396 18.74 37.6996C18.5 37.4596 18.34 37.2196 18.1 36.8996C18.02 36.8196 18.02 36.7396 17.94 36.6596C17.78 36.4996 17.7 36.2596 17.54 36.0996C17.46 36.0196 17.38 35.8596 17.38 35.7796C17.3 35.5396 17.14 35.3796 17.06 35.1396C16.98 35.0596 16.98 34.9796 16.9 34.8196C16.74 34.4996 16.66 34.1796 16.5 33.8596C16.1 32.7396 15.94 31.6196 15.94 30.5796C15.94 29.8596 15.94 29.1396 16.1 28.4196Z" fill="url(#paint38_linear_46_563)"/>
<path d="M56.02 15.2201C55.94 15.1401 55.86 14.9801 55.78 14.9001C55.06 14.1801 53.7 14.1801 52.98 14.9001C52.9 14.9801 52.82 15.0601 52.74 15.2201C52.66 15.3801 52.58 15.4601 52.58 15.5401C52.5 15.6201 52.5 15.7801 52.5 15.9401C52.5 16.1001 52.5 16.1801 52.5 16.3401C52.5 16.5001 52.5 16.5801 52.5 16.7401C52.5 16.9001 52.58 16.9801 52.58 17.1401C52.66 17.2201 52.66 17.3801 52.74 17.4601C52.82 17.5401 52.9 17.7001 52.98 17.7801C53.38 18.1801 53.86 18.3401 54.42 18.3401C54.98 18.3401 55.46 18.1001 55.86 17.7801C55.94 17.7001 56.02 17.6201 56.1 17.4601C56.18 17.3801 56.26 17.2201 56.26 17.1401C56.34 17.0601 56.34 16.9001 56.34 16.7401C56.34 16.5801 56.34 16.5001 56.34 16.3401C56.34 16.1801 56.34 16.1001 56.34 15.9401C56.34 15.7801 56.26 15.7001 56.26 15.5401C56.18 15.4601 56.1 15.3001 56.02 15.2201Z" fill="url(#paint39_linear_46_563)"/>
<defs>
<linearGradient id="paint0_linear_46_563" x1="19.02" y1="37.7004" x2="19.02" y2="38.4204" gradientUnits="userSpaceOnUse">
<stop stop-color="#9342FF"/>
<stop offset="1" stop-color="#3B0189"/>
</linearGradient>
<linearGradient id="paint1_linear_46_563" x1="20.7" y1="39.2996" x2="20.7" y2="39.6996" gradientUnits="userSpaceOnUse">
<stop stop-color="#9342FF"/>
<stop offset="1" stop-color="#3B0189"/>
</linearGradient>
<linearGradient id="paint2_linear_46_563" x1="19.9" y1="38.6599" x2="19.9" y2="39.1399" gradientUnits="userSpaceOnUse">
<stop stop-color="#9342FF"/>
<stop offset="1" stop-color="#3B0189"/>
</linearGradient>
<linearGradient id="paint3_linear_46_563" x1="21.66" y1="39.8601" x2="21.66" y2="40.3401" gradientUnits="userSpaceOnUse">
<stop stop-color="#9342FF"/>
<stop offset="1" stop-color="#3B0189"/>
</linearGradient>
<linearGradient id="paint4_linear_46_563" x1="22.62" y1="40.3401" x2="22.62" y2="40.7401" gradientUnits="userSpaceOnUse">
<stop stop-color="#9342FF"/>
<stop offset="1" stop-color="#3B0189"/>
</linearGradient>
<linearGradient id="paint5_linear_46_563" x1="23.62" y1="40.8198" x2="23.62" y2="41.0598" gradientUnits="userSpaceOnUse">
<stop stop-color="#9342FF"/>
<stop offset="1" stop-color="#3B0189"/>
</linearGradient>
<linearGradient id="paint6_linear_46_563" x1="17.74" y1="36.1001" x2="17.74" y2="36.6601" gradientUnits="userSpaceOnUse">
<stop stop-color="#9342FF"/>
<stop offset="1" stop-color="#3B0189"/>
</linearGradient>
<linearGradient id="paint7_linear_46_563" x1="17.22" y1="35.1399" x2="17.22" y2="35.7799" gradientUnits="userSpaceOnUse">
<stop stop-color="#9342FF"/>
<stop offset="1" stop-color="#3B0189"/>
</linearGradient>
<linearGradient id="paint8_linear_46_563" x1="16.7" y1="33.8601" x2="16.7" y2="34.8201" gradientUnits="userSpaceOnUse">
<stop stop-color="#9342FF"/>
<stop offset="1" stop-color="#3B0189"/>
</linearGradient>
<linearGradient id="paint9_linear_46_563" x1="18.4199" y1="36.8999" x2="18.4199" y2="37.6999" gradientUnits="userSpaceOnUse">
<stop stop-color="#9342FF"/>
<stop offset="1" stop-color="#3B0189"/>
</linearGradient>
<linearGradient id="paint10_linear_46_563" x1="37.8197" y1="25.78" x2="37.8197" y2="32.42" gradientUnits="userSpaceOnUse">
<stop stop-color="#9342FF"/>
<stop offset="1" stop-color="#3B0189"/>
</linearGradient>
<linearGradient id="paint11_linear_46_563" x1="24.62" y1="41.1399" x2="24.62" y2="41.2999" gradientUnits="userSpaceOnUse">
<stop stop-color="#9342FF"/>
<stop offset="1" stop-color="#3B0189"/>
</linearGradient>
<linearGradient id="paint12_linear_46_563" x1="26.3" y1="19.1399" x2="26.3" y2="19.2199" gradientUnits="userSpaceOnUse">
<stop stop-color="#9342FF"/>
<stop offset="1" stop-color="#3B0189"/>
</linearGradient>
<linearGradient id="paint13_linear_46_563" x1="36.54" y1="23.9402" x2="36.54" y2="24.5802" gradientUnits="userSpaceOnUse">
<stop stop-color="#9342FF"/>
<stop offset="1" stop-color="#3B0189"/>
</linearGradient>
<linearGradient id="paint14_linear_46_563" x1="36.1399" y1="23.6199" x2="36.1399" y2="23.6999" gradientUnits="userSpaceOnUse">
<stop stop-color="#9342FF"/>
<stop offset="1" stop-color="#3B0189"/>
</linearGradient>
<linearGradient id="paint15_linear_46_563" x1="37.0601" y1="24.8999" x2="37.0601" y2="25.5399" gradientUnits="userSpaceOnUse">
<stop stop-color="#9342FF"/>
<stop offset="1" stop-color="#3B0189"/>
</linearGradient>
<linearGradient id="paint16_linear_46_563" x1="25.74" y1="41.3801" x2="25.74" y2="41.4601" gradientUnits="userSpaceOnUse">
<stop stop-color="#9342FF"/>
<stop offset="1" stop-color="#3B0189"/>
</linearGradient>
<linearGradient id="paint17_linear_46_563" x1="32.5399" y1="20.3401" x2="32.5399" y2="20.8201" gradientUnits="userSpaceOnUse">
<stop stop-color="#9342FF"/>
<stop offset="1" stop-color="#3B0189"/>
</linearGradient>
<linearGradient id="paint18_linear_46_563" x1="29.66" y1="19.3801" x2="29.66" y2="19.5401" gradientUnits="userSpaceOnUse">
<stop stop-color="#9342FF"/>
<stop offset="1" stop-color="#3B0189"/>
</linearGradient>
<linearGradient id="paint19_linear_46_563" x1="31.66" y1="19.9402" x2="31.66" y2="20.3402" gradientUnits="userSpaceOnUse">
<stop stop-color="#9342FF"/>
<stop offset="1" stop-color="#3B0189"/>
</linearGradient>
<linearGradient id="paint20_linear_46_563" x1="28.5" y1="19.1399" x2="28.5" y2="19.2999" gradientUnits="userSpaceOnUse">
<stop stop-color="#9342FF"/>
<stop offset="1" stop-color="#3B0189"/>
</linearGradient>
<linearGradient id="paint21_linear_46_563" x1="30.58" y1="19.6199" x2="30.58" y2="19.8599" gradientUnits="userSpaceOnUse">
<stop stop-color="#9342FF"/>
<stop offset="1" stop-color="#3B0189"/>
</linearGradient>
<linearGradient id="paint22_linear_46_563" x1="29.7" y1="56.98" x2="29.7" y2="57.3" gradientUnits="userSpaceOnUse">
<stop stop-color="#9342FF"/>
<stop offset="1" stop-color="#3B0189"/>
</linearGradient>
<linearGradient id="paint23_linear_46_563" x1="29.46" y1="57.5403" x2="29.46" y2="57.9403" gradientUnits="userSpaceOnUse">
<stop stop-color="#9342FF"/>
<stop offset="1" stop-color="#3B0189"/>
</linearGradient>
<linearGradient id="paint24_linear_46_563" x1="31.86" y1="54.5801" x2="31.86" y2="54.9001" gradientUnits="userSpaceOnUse">
<stop stop-color="#9342FF"/>
<stop offset="1" stop-color="#3B0189"/>
</linearGradient>
<linearGradient id="paint25_linear_46_563" x1="30.46" y1="55.9402" x2="30.46" y2="56.2602" gradientUnits="userSpaceOnUse">
<stop stop-color="#9342FF"/>
<stop offset="1" stop-color="#3B0189"/>
</linearGradient>
<linearGradient id="paint26_linear_46_563" x1="30.06" y1="56.4199" x2="30.06" y2="56.7399" gradientUnits="userSpaceOnUse">
<stop stop-color="#9342FF"/>
<stop offset="1" stop-color="#3B0189"/>
</linearGradient>
<linearGradient id="paint27_linear_46_563" x1="31.3" y1="55.0598" x2="31.3" y2="55.2998" gradientUnits="userSpaceOnUse">
<stop stop-color="#9342FF"/>
<stop offset="1" stop-color="#3B0189"/>
</linearGradient>
<linearGradient id="paint28_linear_46_563" x1="53.98" y1="35.1399" x2="53.98" y2="35.2199" gradientUnits="userSpaceOnUse">
<stop stop-color="#9342FF"/>
<stop offset="1" stop-color="#3B0189"/>
</linearGradient>
<linearGradient id="paint29_linear_46_563" x1="55.58" y1="36.5801" x2="55.58" y2="36.7401" gradientUnits="userSpaceOnUse">
<stop stop-color="#9342FF"/>
<stop offset="1" stop-color="#3B0189"/>
</linearGradient>
<linearGradient id="paint30_linear_46_563" x1="29.22" y1="58.1802" x2="29.22" y2="58.5802" gradientUnits="userSpaceOnUse">
<stop stop-color="#9342FF"/>
<stop offset="1" stop-color="#3B0189"/>
</linearGradient>
<linearGradient id="paint31_linear_46_563" x1="59.38" y1="37.2996" x2="59.38" y2="50.5796" gradientUnits="userSpaceOnUse">
<stop stop-color="#9342FF"/>
<stop offset="1" stop-color="#3B0189"/>
</linearGradient>
<linearGradient id="paint32_linear_46_563" x1="33.1" y1="54.02" x2="33.1" y2="54.18" gradientUnits="userSpaceOnUse">
<stop stop-color="#9342FF"/>
<stop offset="1" stop-color="#3B0189"/>
</linearGradient>
<linearGradient id="paint33_linear_46_563" x1="35.02" y1="53.6646" x2="35.02" y2="53.7001" gradientUnits="userSpaceOnUse">
<stop stop-color="#9342FF"/>
<stop offset="1" stop-color="#3B0189"/>
</linearGradient>
<linearGradient id="paint34_linear_46_563" x1="33.74" y1="53.8601" x2="33.74" y2="53.9401" gradientUnits="userSpaceOnUse">
<stop stop-color="#9342FF"/>
<stop offset="1" stop-color="#3B0189"/>
</linearGradient>
<linearGradient id="paint35_linear_46_563" x1="38.5399" y1="53.6199" x2="38.5399" y2="54.4199" gradientUnits="userSpaceOnUse">
<stop stop-color="#9342FF"/>
<stop offset="1" stop-color="#3B0189"/>
</linearGradient>
<linearGradient id="paint36_linear_46_563" x1="46.62" y1="34.6599" x2="46.62" y2="36.6599" gradientUnits="userSpaceOnUse">
<stop stop-color="#9342FF"/>
<stop offset="1" stop-color="#3B0189"/>
</linearGradient>
<linearGradient id="paint37_linear_46_563" x1="24.14" y1="19.3801" x2="24.14" y2="19.7001" gradientUnits="userSpaceOnUse">
<stop stop-color="#9342FF"/>
<stop offset="1" stop-color="#3B0189"/>
</linearGradient>
<linearGradient id="paint38_linear_46_563" x1="39.318" y1="14.4792" x2="39.318" y2="66.4196" gradientUnits="userSpaceOnUse">
<stop stop-color="#9342FF"/>
<stop offset="1" stop-color="#3B0189"/>
</linearGradient>
<linearGradient id="paint39_linear_46_563" x1="54.42" y1="14.3601" x2="54.42" y2="18.3401" gradientUnits="userSpaceOnUse">
<stop stop-color="#9342FF"/>
<stop offset="1" stop-color="#3B0189"/>
</linearGradient>
</defs>
</svg>
