<svg width="179" height="61" viewBox="0 0 179 61" fill="none" xmlns="http://www.w3.org/2000/svg">
<path d="M28.1455 0C28.23 1.62759e-05 28.314 0.00554846 28.3965 0.0166016L48.7812 20.5273C48.7839 20.5664 48.7852 20.606 48.7852 20.6455V50.6748C48.785 55.8573 44.5844 60.0585 39.4033 60.0586H9.38184C4.20071 60.0586 0.000174471 55.8573 0 50.6748V9.38379C0.000170152 4.20127 4.20071 0 9.38184 0H28.1455ZM22.3164 26.374H22.3184C21.9107 28.1418 21.0259 29.7656 19.7559 31.0635C18.4883 32.3614 16.8874 33.2835 15.1279 33.7285L5.94434 36.0762L15.126 38.4238C16.8855 38.8689 18.4861 39.7911 19.7559 41.0889C21.0234 42.3868 21.9104 44.0081 22.3154 45.7783L24.3916 54.7295L26.4668 45.7783H26.4639C26.8715 44.0082 27.7564 42.3848 29.0264 41.0869C30.2963 39.7916 31.8969 38.8689 33.6562 38.4238L42.8408 36.0762L33.6562 33.7285C31.8969 33.2835 30.2963 32.3613 29.0264 31.0635C27.7588 29.7656 26.8718 28.1418 26.4668 26.374L24.3916 17.4229L22.3164 26.374ZM30.0215 13.1377C30.0215 16.2472 32.5415 18.7685 35.6504 18.7686H42.3789L30.0215 6.4082V13.1377Z" fill="white"/>
<path d="M62.9132 21.0373H72.4612C74.6638 21.0373 76.3158 21.5133 77.4172 22.4653C78.5185 23.4173 79.0692 24.7426 79.0692 26.4413C79.0692 27.3933 78.9292 28.1866 78.6492 28.8213C78.3692 29.4373 78.0425 29.9413 77.6692 30.3333C77.2958 30.7066 76.9225 30.9773 76.5492 31.1453C76.1945 31.3133 75.9332 31.4253 75.7652 31.4813V31.5373C76.0638 31.5746 76.3812 31.668 76.7172 31.8173C77.0718 31.9666 77.3985 32.2093 77.6972 32.5453C77.9958 32.8626 78.2385 33.2826 78.4252 33.8053C78.6305 34.328 78.7332 34.9813 78.7332 35.7653C78.7332 36.9413 78.8172 38.0146 78.9852 38.9853C79.1718 39.9373 79.4518 40.6186 79.8252 41.0293H76.0732C75.8118 40.6 75.6532 40.124 75.5972 39.6013C75.5598 39.0786 75.5412 38.5746 75.5412 38.0893C75.5412 37.1746 75.4852 36.3906 75.3732 35.7373C75.2612 35.0653 75.0558 34.5146 74.7572 34.0853C74.4585 33.6373 74.0478 33.3106 73.5252 33.1053C73.0212 32.9 72.3678 32.7973 71.5652 32.7973H66.4132V41.0293H62.9132V21.0373ZM66.4132 30.1373H72.1532C73.2732 30.1373 74.1225 29.876 74.7012 29.3533C75.2798 28.812 75.5692 28.0093 75.5692 26.9453C75.5692 26.3106 75.4758 25.7973 75.2892 25.4053C75.1025 24.9946 74.8412 24.6773 74.5052 24.4533C74.1878 24.2293 73.8145 24.08 73.3852 24.0053C72.9745 23.9306 72.5452 23.8933 72.0972 23.8933H66.4132V30.1373ZM91 32.5173C90.9627 32.0133 90.8507 31.528 90.664 31.0613C90.496 30.5946 90.2533 30.1933 89.936 29.8573C89.6373 29.5026 89.264 29.2226 88.816 29.0173C88.3867 28.7933 87.9013 28.6813 87.36 28.6813C86.8 28.6813 86.2867 28.784 85.82 28.9893C85.372 29.176 84.98 29.4466 84.644 29.8013C84.3267 30.1373 84.0653 30.5386 83.86 31.0053C83.6733 31.472 83.5707 31.976 83.552 32.5173H91ZM83.552 34.6173C83.552 35.1773 83.6267 35.7186 83.776 36.2413C83.944 36.764 84.1867 37.2213 84.504 37.6133C84.8213 38.0053 85.2227 38.3226 85.708 38.5653C86.1933 38.7893 86.772 38.9013 87.444 38.9013C88.3773 38.9013 89.124 38.7053 89.684 38.3133C90.2627 37.9026 90.692 37.296 90.972 36.4933H93.996C93.828 37.2773 93.5387 37.9773 93.128 38.5933C92.7173 39.2093 92.2227 39.732 91.644 40.1613C91.0653 40.572 90.412 40.88 89.684 41.0853C88.9747 41.3093 88.228 41.4213 87.444 41.4213C86.3053 41.4213 85.2973 41.2346 84.42 40.8613C83.5427 40.488 82.796 39.9653 82.18 39.2933C81.5827 38.6213 81.1253 37.8186 80.808 36.8853C80.5093 35.952 80.36 34.9253 80.36 33.8053C80.36 32.7786 80.5187 31.808 80.836 30.8933C81.172 29.96 81.6387 29.148 82.236 28.4573C82.852 27.748 83.5893 27.188 84.448 26.7773C85.3067 26.3666 86.2773 26.1613 87.36 26.1613C88.4987 26.1613 89.516 26.404 90.412 26.8893C91.3267 27.356 92.0827 27.9813 92.68 28.7653C93.2773 29.5493 93.7067 30.4546 93.968 31.4813C94.248 32.4893 94.3227 33.5346 94.192 34.6173H83.552ZM97.9066 36.3813C97.9999 37.3146 98.3546 37.968 98.9706 38.3413C99.5866 38.7146 100.324 38.9013 101.183 38.9013C101.481 38.9013 101.817 38.8826 102.191 38.8453C102.583 38.7893 102.947 38.696 103.283 38.5653C103.619 38.4346 103.889 38.248 104.095 38.0053C104.319 37.744 104.421 37.408 104.403 36.9973C104.384 36.5866 104.235 36.2506 103.955 35.9893C103.675 35.728 103.311 35.5226 102.863 35.3733C102.433 35.2053 101.939 35.0653 101.379 34.9533C100.819 34.8413 100.249 34.72 99.6706 34.5893C99.0733 34.4586 98.4946 34.3 97.9346 34.1133C97.3933 33.9266 96.8986 33.6746 96.4506 33.3573C96.0213 33.04 95.6759 32.6386 95.4146 32.1533C95.1533 31.6493 95.0226 31.0333 95.0226 30.3053C95.0226 29.5213 95.2093 28.868 95.5826 28.3453C95.9746 27.804 96.4599 27.3746 97.0386 27.0573C97.6359 26.7213 98.2893 26.488 98.9986 26.3573C99.7266 26.2266 100.417 26.1613 101.071 26.1613C101.817 26.1613 102.527 26.2453 103.199 26.4133C103.889 26.5626 104.505 26.8146 105.047 27.1693C105.607 27.524 106.064 27.9906 106.419 28.5693C106.792 29.1293 107.025 29.8106 107.119 30.6133H103.787C103.637 29.848 103.283 29.3346 102.723 29.0733C102.181 28.812 101.556 28.6813 100.847 28.6813C100.623 28.6813 100.352 28.7 100.035 28.7373C99.7359 28.7746 99.4466 28.8493 99.1666 28.9613C98.9053 29.0546 98.6813 29.204 98.4946 29.4093C98.3079 29.596 98.2146 29.848 98.2146 30.1653C98.2146 30.5573 98.3453 30.8746 98.6066 31.1173C98.8866 31.36 99.2413 31.5653 99.6706 31.7333C100.119 31.8826 100.623 32.0133 101.183 32.1253C101.743 32.2373 102.321 32.3586 102.919 32.4893C103.497 32.62 104.067 32.7786 104.627 32.9653C105.187 33.152 105.681 33.404 106.111 33.7213C106.559 34.0386 106.913 34.44 107.175 34.9253C107.455 35.4106 107.595 36.008 107.595 36.7173C107.595 37.576 107.399 38.304 107.007 38.9013C106.615 39.4986 106.101 39.984 105.467 40.3573C104.851 40.7306 104.16 41.0013 103.395 41.1693C102.629 41.3373 101.873 41.4213 101.127 41.4213C100.212 41.4213 99.3626 41.3186 98.5786 41.1133C97.8133 40.908 97.1413 40.6 96.5626 40.1893C96.0026 39.76 95.5546 39.2373 95.2186 38.6213C94.9013 37.9866 94.7333 37.24 94.7146 36.3813H97.9066ZM121.61 41.0293H118.474V39.0133H118.418C118.026 39.7413 117.438 40.3293 116.654 40.7773C115.889 41.2066 115.105 41.4213 114.302 41.4213C112.398 41.4213 111.017 40.9546 110.158 40.0213C109.318 39.0693 108.898 37.6413 108.898 35.7373V26.5533H112.09V35.4293C112.09 36.6986 112.333 37.5946 112.818 38.1173C113.303 38.64 113.985 38.9013 114.862 38.9013C115.534 38.9013 116.094 38.7986 116.542 38.5933C116.99 38.388 117.354 38.1173 117.634 37.7813C117.914 37.4266 118.11 37.0066 118.222 36.5213C118.353 36.036 118.418 35.5133 118.418 34.9533V26.5533H121.61V41.0293ZM123.856 26.5533H126.88V28.5693H126.964C127.207 28.2146 127.468 27.888 127.748 27.5893C128.028 27.2906 128.336 27.0386 128.672 26.8333C129.027 26.628 129.428 26.4693 129.876 26.3573C130.324 26.2266 130.838 26.1613 131.416 26.1613C132.294 26.1613 133.106 26.3573 133.852 26.7493C134.618 27.1413 135.159 27.748 135.476 28.5693C136.018 27.8226 136.643 27.2346 137.352 26.8053C138.062 26.376 138.948 26.1613 140.012 26.1613C141.543 26.1613 142.728 26.5346 143.568 27.2813C144.427 28.028 144.856 29.2786 144.856 31.0333V41.0293H141.664V32.5733C141.664 31.9946 141.646 31.472 141.608 31.0053C141.571 30.52 141.459 30.1093 141.272 29.7733C141.104 29.4186 140.843 29.148 140.488 28.9613C140.134 28.7746 139.648 28.6813 139.032 28.6813C137.95 28.6813 137.166 29.0173 136.68 29.6893C136.195 30.3613 135.952 31.3133 135.952 32.5453V41.0293H132.76V31.7333C132.76 30.7253 132.574 29.9693 132.2 29.4653C131.846 28.9426 131.183 28.6813 130.212 28.6813C129.802 28.6813 129.4 28.7653 129.008 28.9333C128.635 29.1013 128.299 29.344 128 29.6613C127.72 29.9786 127.487 30.3706 127.3 30.8373C127.132 31.304 127.048 31.836 127.048 32.4333V41.0293H123.856V26.5533ZM157.04 32.5173C157.002 32.0133 156.89 31.528 156.704 31.0613C156.536 30.5946 156.293 30.1933 155.976 29.8573C155.677 29.5026 155.304 29.2226 154.856 29.0173C154.426 28.7933 153.941 28.6813 153.4 28.6813C152.84 28.6813 152.326 28.784 151.86 28.9893C151.412 29.176 151.02 29.4466 150.684 29.8013C150.366 30.1373 150.105 30.5386 149.9 31.0053C149.713 31.472 149.61 31.976 149.592 32.5173H157.04ZM149.592 34.6173C149.592 35.1773 149.666 35.7186 149.816 36.2413C149.984 36.764 150.226 37.2213 150.544 37.6133C150.861 38.0053 151.262 38.3226 151.748 38.5653C152.233 38.7893 152.812 38.9013 153.484 38.9013C154.417 38.9013 155.164 38.7053 155.724 38.3133C156.302 37.9026 156.732 37.296 157.012 36.4933H160.036C159.868 37.2773 159.578 37.9773 159.168 38.5933C158.757 39.2093 158.262 39.732 157.684 40.1613C157.105 40.572 156.452 40.88 155.724 41.0853C155.014 41.3093 154.268 41.4213 153.484 41.4213C152.345 41.4213 151.337 41.2346 150.46 40.8613C149.582 40.488 148.836 39.9653 148.22 39.2933C147.622 38.6213 147.165 37.8186 146.848 36.8853C146.549 35.952 146.4 34.9253 146.4 33.8053C146.4 32.7786 146.558 31.808 146.876 30.8933C147.212 29.96 147.678 29.148 148.276 28.4573C148.892 27.748 149.629 27.188 150.488 26.7773C151.346 26.3666 152.317 26.1613 153.4 26.1613C154.538 26.1613 155.556 26.404 156.452 26.8893C157.366 27.356 158.122 27.9813 158.72 28.7653C159.317 29.5493 159.746 30.4546 160.008 31.4813C160.288 32.4893 160.362 33.5346 160.232 34.6173H149.592ZM160.25 21.0373H164.422L168.958 28.0933L173.69 21.0373H177.61L171.002 30.6693L178.086 41.0293H173.83L168.846 33.3853L163.778 41.0293H159.774L166.858 30.6693L160.25 21.0373Z" fill="white"/>
</svg>
