<svg width="144" height="33" viewBox="0 0 144 33" fill="none" xmlns="http://www.w3.org/2000/svg">
<path d="M15.1543 0.00878906L26.0322 10.9541C26.0336 10.975 26.0342 10.9965 26.0342 11.0176V27.043C26.0339 29.8085 23.7922 32.0508 21.0273 32.0508H5.00684C2.242 32.0508 0.00025989 29.8085 0 27.043V5.00781C1.29385e-05 2.24209 2.24185 0 5.00684 0H15.0195C15.0647 0 15.1102 0.00288218 15.1543 0.00878906ZM11.9092 14.0742H11.9102C11.6926 15.0176 11.2207 15.8845 10.543 16.5771C9.86658 17.2697 9.0121 17.7615 8.07324 17.999L3.17188 19.252L8.07129 20.5039C9.01038 20.7414 9.86531 21.2341 10.543 21.9268C11.2193 22.6194 11.693 23.4851 11.9092 24.4297L13.0166 29.2061L14.124 24.4297H14.1221C14.3396 23.485 14.8125 22.6184 15.4902 21.9258C16.168 21.2345 17.022 20.7414 17.9609 20.5039L22.8623 19.252L17.9609 17.999C17.0221 17.7616 16.1679 17.2696 15.4902 16.5771C14.8138 15.8845 14.3402 15.0176 14.124 14.0742L13.0166 9.29785L11.9092 14.0742ZM16.0215 7.01074C16.0215 8.67014 17.3663 10.0156 19.0254 10.0156H22.6152L16.0215 3.41992V7.01074Z" fill="white"/>
<path d="M39.9342 7.67539H48.4592C50.4258 7.67539 51.9008 8.10039 52.8842 8.95039C53.8675 9.80039 54.3592 10.9837 54.3592 12.5004C54.3592 13.3504 54.2342 14.0587 53.9842 14.6254C53.7342 15.1754 53.4425 15.6254 53.1092 15.9754C52.7758 16.3087 52.4425 16.5504 52.1092 16.7004C51.7925 16.8504 51.5592 16.9504 51.4092 17.0004V17.0504C51.6758 17.0837 51.9592 17.1671 52.2592 17.3004C52.5758 17.4337 52.8675 17.6504 53.1342 17.9504C53.4008 18.2337 53.6175 18.6087 53.7842 19.0754C53.9675 19.5421 54.0592 20.1254 54.0592 20.8254C54.0592 21.8754 54.1342 22.8337 54.2842 23.7004C54.4508 24.5504 54.7008 25.1587 55.0342 25.5254H51.6842C51.4508 25.1421 51.3092 24.7171 51.2592 24.2504C51.2258 23.7837 51.2092 23.3337 51.2092 22.9004C51.2092 22.0837 51.1592 21.3837 51.0592 20.8004C50.9592 20.2004 50.7758 19.7087 50.5092 19.3254C50.2425 18.9254 49.8758 18.6337 49.4092 18.4504C48.9592 18.2671 48.3758 18.1754 47.6592 18.1754H43.0592V25.5254H39.9342V7.67539ZM43.0592 15.8004H48.1842C49.1842 15.8004 49.9425 15.5671 50.4592 15.1004C50.9758 14.6171 51.2342 13.9004 51.2342 12.9504C51.2342 12.3837 51.1508 11.9254 50.9842 11.5754C50.8175 11.2087 50.5842 10.9254 50.2842 10.7254C50.0008 10.5254 49.6675 10.3921 49.2842 10.3254C48.9175 10.2587 48.5342 10.2254 48.1342 10.2254H43.0592V15.8004ZM65.0117 17.9254C64.9784 17.4754 64.8784 17.0421 64.7117 16.6254C64.5617 16.2087 64.3451 15.8504 64.0617 15.5504C63.7951 15.2337 63.4617 14.9837 63.0617 14.8004C62.6784 14.6004 62.2451 14.5004 61.7617 14.5004C61.2617 14.5004 60.8034 14.5921 60.3867 14.7754C59.9867 14.9421 59.6367 15.1837 59.3367 15.5004C59.0534 15.8004 58.8201 16.1587 58.6367 16.5754C58.4701 16.9921 58.3784 17.4421 58.3617 17.9254H65.0117ZM58.3617 19.8004C58.3617 20.3004 58.4284 20.7837 58.5617 21.2504C58.7117 21.7171 58.9284 22.1254 59.2117 22.4754C59.4951 22.8254 59.8534 23.1087 60.2867 23.3254C60.7201 23.5254 61.2367 23.6254 61.8367 23.6254C62.6701 23.6254 63.3367 23.4504 63.8367 23.1004C64.3534 22.7337 64.7367 22.1921 64.9867 21.4754H67.6867C67.5367 22.1754 67.2784 22.8004 66.9117 23.3504C66.5451 23.9004 66.1034 24.3671 65.5867 24.7504C65.0701 25.1171 64.4867 25.3921 63.8367 25.5754C63.2034 25.7754 62.5367 25.8754 61.8367 25.8754C60.8201 25.8754 59.9201 25.7087 59.1367 25.3754C58.3534 25.0421 57.6867 24.5754 57.1367 23.9754C56.6034 23.3754 56.1951 22.6587 55.9117 21.8254C55.6451 20.9921 55.5117 20.0754 55.5117 19.0754C55.5117 18.1587 55.6534 17.2921 55.9367 16.4754C56.2367 15.6421 56.6534 14.9171 57.1867 14.3004C57.7367 13.6671 58.3951 13.1671 59.1617 12.8004C59.9284 12.4337 60.7951 12.2504 61.7617 12.2504C62.7784 12.2504 63.6867 12.4671 64.4867 12.9004C65.3034 13.3171 65.9784 13.8754 66.5117 14.5754C67.0451 15.2754 67.4284 16.0837 67.6617 17.0004C67.9117 17.9004 67.9784 18.8337 67.8617 19.8004H58.3617ZM71.1783 21.3754C71.2617 22.2087 71.5783 22.7921 72.1283 23.1254C72.6783 23.4587 73.3367 23.6254 74.1033 23.6254C74.37 23.6254 74.67 23.6087 75.0033 23.5754C75.3533 23.5254 75.6783 23.4421 75.9783 23.3254C76.2783 23.2087 76.52 23.0421 76.7033 22.8254C76.9033 22.5921 76.995 22.2921 76.9783 21.9254C76.9617 21.5587 76.8283 21.2587 76.5783 21.0254C76.3283 20.7921 76.0033 20.6087 75.6033 20.4754C75.22 20.3254 74.7783 20.2004 74.2783 20.1004C73.7783 20.0004 73.27 19.8921 72.7533 19.7754C72.22 19.6587 71.7033 19.5171 71.2033 19.3504C70.72 19.1837 70.2783 18.9587 69.8783 18.6754C69.495 18.3921 69.1867 18.0337 68.9533 17.6004C68.72 17.1504 68.6033 16.6004 68.6033 15.9504C68.6033 15.2504 68.77 14.6671 69.1033 14.2004C69.4533 13.7171 69.8867 13.3337 70.4033 13.0504C70.9367 12.7504 71.52 12.5421 72.1533 12.4254C72.8033 12.3087 73.42 12.2504 74.0033 12.2504C74.67 12.2504 75.3033 12.3254 75.9033 12.4754C76.52 12.6087 77.07 12.8337 77.5533 13.1504C78.0533 13.4671 78.4617 13.8837 78.7783 14.4004C79.1117 14.9004 79.32 15.5087 79.4033 16.2254H76.4283C76.295 15.5421 75.9783 15.0837 75.4783 14.8504C74.995 14.6171 74.4367 14.5004 73.8033 14.5004C73.6033 14.5004 73.3617 14.5171 73.0783 14.5504C72.8117 14.5837 72.5533 14.6504 72.3033 14.7504C72.07 14.8337 71.87 14.9671 71.7033 15.1504C71.5367 15.3171 71.4533 15.5421 71.4533 15.8254C71.4533 16.1754 71.57 16.4587 71.8033 16.6754C72.0533 16.8921 72.37 17.0754 72.7533 17.2254C73.1533 17.3587 73.6033 17.4754 74.1033 17.5754C74.6033 17.6754 75.12 17.7837 75.6533 17.9004C76.17 18.0171 76.6783 18.1587 77.1783 18.3254C77.6783 18.4921 78.12 18.7171 78.5033 19.0004C78.9033 19.2837 79.22 19.6421 79.4533 20.0754C79.7033 20.5087 79.8283 21.0421 79.8283 21.6754C79.8283 22.4421 79.6533 23.0921 79.3033 23.6254C78.9533 24.1587 78.495 24.5921 77.9283 24.9254C77.3783 25.2587 76.7617 25.5004 76.0783 25.6504C75.395 25.8004 74.72 25.8754 74.0533 25.8754C73.2367 25.8754 72.4783 25.7837 71.7783 25.6004C71.095 25.4171 70.495 25.1421 69.9783 24.7754C69.4783 24.3921 69.0783 23.9254 68.7783 23.3754C68.495 22.8087 68.345 22.1421 68.3283 21.3754H71.1783ZM92.3422 25.5254H89.5422V23.7254H89.4922C89.1422 24.3754 88.6172 24.9004 87.9172 25.3004C87.2339 25.6837 86.5339 25.8754 85.8172 25.8754C84.1172 25.8754 82.8839 25.4587 82.1172 24.6254C81.3672 23.7754 80.9922 22.5004 80.9922 20.8004V12.6004H83.8422V20.5254C83.8422 21.6587 84.0589 22.4587 84.4922 22.9254C84.9255 23.3921 85.5339 23.6254 86.3172 23.6254C86.9172 23.6254 87.4172 23.5337 87.8172 23.3504C88.2172 23.1671 88.5422 22.9254 88.7922 22.6254C89.0422 22.3087 89.2172 21.9337 89.3172 21.5004C89.4339 21.0671 89.4922 20.6004 89.4922 20.1004V12.6004H92.3422V25.5254ZM94.3477 12.6004H97.0477V14.4004H97.1227C97.3393 14.0837 97.5727 13.7921 97.8227 13.5254C98.0727 13.2587 98.3477 13.0337 98.6477 12.8504C98.9643 12.6671 99.3227 12.5254 99.7227 12.4254C100.123 12.3087 100.581 12.2504 101.098 12.2504C101.881 12.2504 102.606 12.4254 103.273 12.7754C103.956 13.1254 104.439 13.6671 104.723 14.4004C105.206 13.7337 105.764 13.2087 106.398 12.8254C107.031 12.4421 107.823 12.2504 108.773 12.2504C110.139 12.2504 111.198 12.5837 111.948 13.2504C112.714 13.9171 113.098 15.0337 113.098 16.6004V25.5254H110.248V17.9754C110.248 17.4587 110.231 16.9921 110.198 16.5754C110.164 16.1421 110.064 15.7754 109.898 15.4754C109.748 15.1587 109.514 14.9171 109.198 14.7504C108.881 14.5837 108.448 14.5004 107.898 14.5004C106.931 14.5004 106.231 14.8004 105.798 15.4004C105.364 16.0004 105.148 16.8504 105.148 17.9504V25.5254H102.298V17.2254C102.298 16.3254 102.131 15.6504 101.798 15.2004C101.481 14.7337 100.889 14.5004 100.023 14.5004C99.656 14.5004 99.2977 14.5754 98.9477 14.7254C98.6143 14.8754 98.3143 15.0921 98.0477 15.3754C97.7977 15.6587 97.5893 16.0087 97.4227 16.4254C97.2727 16.8421 97.1977 17.3171 97.1977 17.8504V25.5254H94.3477V12.6004ZM123.976 17.9254C123.942 17.4754 123.842 17.0421 123.676 16.6254C123.526 16.2087 123.309 15.8504 123.026 15.5504C122.759 15.2337 122.426 14.9837 122.026 14.8004C121.642 14.6004 121.209 14.5004 120.726 14.5004C120.226 14.5004 119.767 14.5921 119.351 14.7754C118.951 14.9421 118.601 15.1837 118.301 15.5004C118.017 15.8004 117.784 16.1587 117.601 16.5754C117.434 16.9921 117.342 17.4421 117.326 17.9254H123.976ZM117.326 19.8004C117.326 20.3004 117.392 20.7837 117.526 21.2504C117.676 21.7171 117.892 22.1254 118.176 22.4754C118.459 22.8254 118.817 23.1087 119.251 23.3254C119.684 23.5254 120.201 23.6254 120.801 23.6254C121.634 23.6254 122.301 23.4504 122.801 23.1004C123.317 22.7337 123.701 22.1921 123.951 21.4754H126.651C126.501 22.1754 126.242 22.8004 125.876 23.3504C125.509 23.9004 125.067 24.3671 124.551 24.7504C124.034 25.1171 123.451 25.3921 122.801 25.5754C122.167 25.7754 121.501 25.8754 120.801 25.8754C119.784 25.8754 118.884 25.7087 118.101 25.3754C117.317 25.0421 116.651 24.5754 116.101 23.9754C115.567 23.3754 115.159 22.6587 114.876 21.8254C114.609 20.9921 114.476 20.0754 114.476 19.0754C114.476 18.1587 114.617 17.2921 114.901 16.4754C115.201 15.6421 115.617 14.9171 116.151 14.3004C116.701 13.6671 117.359 13.1671 118.126 12.8004C118.892 12.4337 119.759 12.2504 120.726 12.2504C121.742 12.2504 122.651 12.4671 123.451 12.9004C124.267 13.3171 124.942 13.8754 125.476 14.5754C126.009 15.2754 126.392 16.0837 126.626 17.0004C126.876 17.9004 126.942 18.8337 126.826 19.8004H117.326ZM126.842 7.67539H130.567L134.617 13.9754L138.842 7.67539H142.342L136.442 16.2754L142.767 25.5254H138.967L134.517 18.7004L129.992 25.5254H126.417L132.742 16.2754L126.842 7.67539Z" fill="white"/>
<path d="M39.9342 7.67539H48.4592C50.4258 7.67539 51.9008 8.10039 52.8842 8.95039C53.8675 9.80039 54.3592 10.9837 54.3592 12.5004C54.3592 13.3504 54.2342 14.0587 53.9842 14.6254C53.7342 15.1754 53.4425 15.6254 53.1092 15.9754C52.7758 16.3087 52.4425 16.5504 52.1092 16.7004C51.7925 16.8504 51.5592 16.9504 51.4092 17.0004V17.0504C51.6758 17.0837 51.9592 17.1671 52.2592 17.3004C52.5758 17.4337 52.8675 17.6504 53.1342 17.9504C53.4008 18.2337 53.6175 18.6087 53.7842 19.0754C53.9675 19.5421 54.0592 20.1254 54.0592 20.8254C54.0592 21.8754 54.1342 22.8337 54.2842 23.7004C54.4508 24.5504 54.7008 25.1587 55.0342 25.5254H51.6842C51.4508 25.1421 51.3092 24.7171 51.2592 24.2504C51.2258 23.7837 51.2092 23.3337 51.2092 22.9004C51.2092 22.0837 51.1592 21.3837 51.0592 20.8004C50.9592 20.2004 50.7758 19.7087 50.5092 19.3254C50.2425 18.9254 49.8758 18.6337 49.4092 18.4504C48.9592 18.2671 48.3758 18.1754 47.6592 18.1754H43.0592V25.5254H39.9342V7.67539ZM43.0592 15.8004H48.1842C49.1842 15.8004 49.9425 15.5671 50.4592 15.1004C50.9758 14.6171 51.2342 13.9004 51.2342 12.9504C51.2342 12.3837 51.1508 11.9254 50.9842 11.5754C50.8175 11.2087 50.5842 10.9254 50.2842 10.7254C50.0008 10.5254 49.6675 10.3921 49.2842 10.3254C48.9175 10.2587 48.5342 10.2254 48.1342 10.2254H43.0592V15.8004ZM65.0117 17.9254C64.9784 17.4754 64.8784 17.0421 64.7117 16.6254C64.5617 16.2087 64.3451 15.8504 64.0617 15.5504C63.7951 15.2337 63.4617 14.9837 63.0617 14.8004C62.6784 14.6004 62.2451 14.5004 61.7617 14.5004C61.2617 14.5004 60.8034 14.5921 60.3867 14.7754C59.9867 14.9421 59.6367 15.1837 59.3367 15.5004C59.0534 15.8004 58.8201 16.1587 58.6367 16.5754C58.4701 16.9921 58.3784 17.4421 58.3617 17.9254H65.0117ZM58.3617 19.8004C58.3617 20.3004 58.4284 20.7837 58.5617 21.2504C58.7117 21.7171 58.9284 22.1254 59.2117 22.4754C59.4951 22.8254 59.8534 23.1087 60.2867 23.3254C60.7201 23.5254 61.2367 23.6254 61.8367 23.6254C62.6701 23.6254 63.3367 23.4504 63.8367 23.1004C64.3534 22.7337 64.7367 22.1921 64.9867 21.4754H67.6867C67.5367 22.1754 67.2784 22.8004 66.9117 23.3504C66.5451 23.9004 66.1034 24.3671 65.5867 24.7504C65.0701 25.1171 64.4867 25.3921 63.8367 25.5754C63.2034 25.7754 62.5367 25.8754 61.8367 25.8754C60.8201 25.8754 59.9201 25.7087 59.1367 25.3754C58.3534 25.0421 57.6867 24.5754 57.1367 23.9754C56.6034 23.3754 56.1951 22.6587 55.9117 21.8254C55.6451 20.9921 55.5117 20.0754 55.5117 19.0754C55.5117 18.1587 55.6534 17.2921 55.9367 16.4754C56.2367 15.6421 56.6534 14.9171 57.1867 14.3004C57.7367 13.6671 58.3951 13.1671 59.1617 12.8004C59.9284 12.4337 60.7951 12.2504 61.7617 12.2504C62.7784 12.2504 63.6867 12.4671 64.4867 12.9004C65.3034 13.3171 65.9784 13.8754 66.5117 14.5754C67.0451 15.2754 67.4284 16.0837 67.6617 17.0004C67.9117 17.9004 67.9784 18.8337 67.8617 19.8004H58.3617ZM71.1783 21.3754C71.2617 22.2087 71.5783 22.7921 72.1283 23.1254C72.6783 23.4587 73.3367 23.6254 74.1033 23.6254C74.37 23.6254 74.67 23.6087 75.0033 23.5754C75.3533 23.5254 75.6783 23.4421 75.9783 23.3254C76.2783 23.2087 76.52 23.0421 76.7033 22.8254C76.9033 22.5921 76.995 22.2921 76.9783 21.9254C76.9617 21.5587 76.8283 21.2587 76.5783 21.0254C76.3283 20.7921 76.0033 20.6087 75.6033 20.4754C75.22 20.3254 74.7783 20.2004 74.2783 20.1004C73.7783 20.0004 73.27 19.8921 72.7533 19.7754C72.22 19.6587 71.7033 19.5171 71.2033 19.3504C70.72 19.1837 70.2783 18.9587 69.8783 18.6754C69.495 18.3921 69.1867 18.0337 68.9533 17.6004C68.72 17.1504 68.6033 16.6004 68.6033 15.9504C68.6033 15.2504 68.77 14.6671 69.1033 14.2004C69.4533 13.7171 69.8867 13.3337 70.4033 13.0504C70.9367 12.7504 71.52 12.5421 72.1533 12.4254C72.8033 12.3087 73.42 12.2504 74.0033 12.2504C74.67 12.2504 75.3033 12.3254 75.9033 12.4754C76.52 12.6087 77.07 12.8337 77.5533 13.1504C78.0533 13.4671 78.4617 13.8837 78.7783 14.4004C79.1117 14.9004 79.32 15.5087 79.4033 16.2254H76.4283C76.295 15.5421 75.9783 15.0837 75.4783 14.8504C74.995 14.6171 74.4367 14.5004 73.8033 14.5004C73.6033 14.5004 73.3617 14.5171 73.0783 14.5504C72.8117 14.5837 72.5533 14.6504 72.3033 14.7504C72.07 14.8337 71.87 14.9671 71.7033 15.1504C71.5367 15.3171 71.4533 15.5421 71.4533 15.8254C71.4533 16.1754 71.57 16.4587 71.8033 16.6754C72.0533 16.8921 72.37 17.0754 72.7533 17.2254C73.1533 17.3587 73.6033 17.4754 74.1033 17.5754C74.6033 17.6754 75.12 17.7837 75.6533 17.9004C76.17 18.0171 76.6783 18.1587 77.1783 18.3254C77.6783 18.4921 78.12 18.7171 78.5033 19.0004C78.9033 19.2837 79.22 19.6421 79.4533 20.0754C79.7033 20.5087 79.8283 21.0421 79.8283 21.6754C79.8283 22.4421 79.6533 23.0921 79.3033 23.6254C78.9533 24.1587 78.495 24.5921 77.9283 24.9254C77.3783 25.2587 76.7617 25.5004 76.0783 25.6504C75.395 25.8004 74.72 25.8754 74.0533 25.8754C73.2367 25.8754 72.4783 25.7837 71.7783 25.6004C71.095 25.4171 70.495 25.1421 69.9783 24.7754C69.4783 24.3921 69.0783 23.9254 68.7783 23.3754C68.495 22.8087 68.345 22.1421 68.3283 21.3754H71.1783ZM92.3422 25.5254H89.5422V23.7254H89.4922C89.1422 24.3754 88.6172 24.9004 87.9172 25.3004C87.2339 25.6837 86.5339 25.8754 85.8172 25.8754C84.1172 25.8754 82.8839 25.4587 82.1172 24.6254C81.3672 23.7754 80.9922 22.5004 80.9922 20.8004V12.6004H83.8422V20.5254C83.8422 21.6587 84.0589 22.4587 84.4922 22.9254C84.9255 23.3921 85.5339 23.6254 86.3172 23.6254C86.9172 23.6254 87.4172 23.5337 87.8172 23.3504C88.2172 23.1671 88.5422 22.9254 88.7922 22.6254C89.0422 22.3087 89.2172 21.9337 89.3172 21.5004C89.4339 21.0671 89.4922 20.6004 89.4922 20.1004V12.6004H92.3422V25.5254ZM94.3477 12.6004H97.0477V14.4004H97.1227C97.3393 14.0837 97.5727 13.7921 97.8227 13.5254C98.0727 13.2587 98.3477 13.0337 98.6477 12.8504C98.9643 12.6671 99.3227 12.5254 99.7227 12.4254C100.123 12.3087 100.581 12.2504 101.098 12.2504C101.881 12.2504 102.606 12.4254 103.273 12.7754C103.956 13.1254 104.439 13.6671 104.723 14.4004C105.206 13.7337 105.764 13.2087 106.398 12.8254C107.031 12.4421 107.823 12.2504 108.773 12.2504C110.139 12.2504 111.198 12.5837 111.948 13.2504C112.714 13.9171 113.098 15.0337 113.098 16.6004V25.5254H110.248V17.9754C110.248 17.4587 110.231 16.9921 110.198 16.5754C110.164 16.1421 110.064 15.7754 109.898 15.4754C109.748 15.1587 109.514 14.9171 109.198 14.7504C108.881 14.5837 108.448 14.5004 107.898 14.5004C106.931 14.5004 106.231 14.8004 105.798 15.4004C105.364 16.0004 105.148 16.8504 105.148 17.9504V25.5254H102.298V17.2254C102.298 16.3254 102.131 15.6504 101.798 15.2004C101.481 14.7337 100.889 14.5004 100.023 14.5004C99.656 14.5004 99.2977 14.5754 98.9477 14.7254C98.6143 14.8754 98.3143 15.0921 98.0477 15.3754C97.7977 15.6587 97.5893 16.0087 97.4227 16.4254C97.2727 16.8421 97.1977 17.3171 97.1977 17.8504V25.5254H94.3477V12.6004ZM123.976 17.9254C123.942 17.4754 123.842 17.0421 123.676 16.6254C123.526 16.2087 123.309 15.8504 123.026 15.5504C122.759 15.2337 122.426 14.9837 122.026 14.8004C121.642 14.6004 121.209 14.5004 120.726 14.5004C120.226 14.5004 119.767 14.5921 119.351 14.7754C118.951 14.9421 118.601 15.1837 118.301 15.5004C118.017 15.8004 117.784 16.1587 117.601 16.5754C117.434 16.9921 117.342 17.4421 117.326 17.9254H123.976ZM117.326 19.8004C117.326 20.3004 117.392 20.7837 117.526 21.2504C117.676 21.7171 117.892 22.1254 118.176 22.4754C118.459 22.8254 118.817 23.1087 119.251 23.3254C119.684 23.5254 120.201 23.6254 120.801 23.6254C121.634 23.6254 122.301 23.4504 122.801 23.1004C123.317 22.7337 123.701 22.1921 123.951 21.4754H126.651C126.501 22.1754 126.242 22.8004 125.876 23.3504C125.509 23.9004 125.067 24.3671 124.551 24.7504C124.034 25.1171 123.451 25.3921 122.801 25.5754C122.167 25.7754 121.501 25.8754 120.801 25.8754C119.784 25.8754 118.884 25.7087 118.101 25.3754C117.317 25.0421 116.651 24.5754 116.101 23.9754C115.567 23.3754 115.159 22.6587 114.876 21.8254C114.609 20.9921 114.476 20.0754 114.476 19.0754C114.476 18.1587 114.617 17.2921 114.901 16.4754C115.201 15.6421 115.617 14.9171 116.151 14.3004C116.701 13.6671 117.359 13.1671 118.126 12.8004C118.892 12.4337 119.759 12.2504 120.726 12.2504C121.742 12.2504 122.651 12.4671 123.451 12.9004C124.267 13.3171 124.942 13.8754 125.476 14.5754C126.009 15.2754 126.392 16.0837 126.626 17.0004C126.876 17.9004 126.942 18.8337 126.826 19.8004H117.326ZM126.842 7.67539H130.567L134.617 13.9754L138.842 7.67539H142.342L136.442 16.2754L142.767 25.5254H138.967L134.517 18.7004L129.992 25.5254H126.417L132.742 16.2754L126.842 7.67539Z" fill="white"/>
</svg>
