<svg width="270" height="334" viewBox="0 0 270 334" fill="none" xmlns="http://www.w3.org/2000/svg">
<path d="M135 0.0506592L145.263 301.784C145.388 305.441 150.705 305.734 151.23 302.113L194.624 3.34021L171.632 304.372C171.354 308.019 176.606 308.896 177.527 305.355L253.525 13.169L197.557 309.844C196.878 313.439 202.002 314.888 203.307 311.47L310.987 29.4177L222.721 318.135C221.652 321.634 226.585 323.638 228.258 320.384L366.313 51.8891L246.822 329.144C245.374 332.504 250.057 335.038 252.078 331.989L418.831 80.3103L269.564 342.738C267.756 345.918 272.132 348.952 274.476 346.143L467.903 114.337L290.674 358.751C288.526 361.712 292.542 365.21 295.18 362.675L512.935 153.555L309.893 376.988C307.433 379.696 311.04 383.614 313.941 381.385L553.379 197.488L326.99 397.23C324.247 399.65 327.4 403.941 330.529 402.045L588.744 245.605L341.756 419.229C338.763 421.333 341.426 425.945 344.745 424.405L618.602 297.32L354.013 442.72C350.807 444.482 352.946 449.358 356.413 448.193L642.589 352.005L363.611 467.416C360.23 468.814 361.82 473.897 365.395 473.12L660.415 408.998L370.434 493.018C366.92 494.036 367.941 499.262 371.579 498.883L671.863 467.605L374.399 519.215C370.794 519.841 371.234 525.147 374.892 525.171L676.794 527.116L375.458 545.69C371.806 545.915 371.66 551.238 375.293 551.664L675.149 586.809L373.598 572.12C369.944 571.942 369.213 577.216 372.777 578.039L666.947 645.958L368.842 598.185C365.23 597.606 363.923 602.768 367.375 603.978L652.288 703.846L361.248 623.569C357.721 622.596 355.854 627.583 359.152 629.166L631.349 759.77L350.907 647.963C347.508 646.608 345.104 651.36 348.208 653.296L604.386 813.051L337.945 671.072C334.716 669.352 331.804 673.809 334.677 676.075L571.725 863.042L322.52 692.615C319.5 690.549 316.115 694.66 318.721 697.228L533.762 909.137L304.819 712.33C302.044 709.945 298.227 713.658 300.535 716.497L490.96 950.776L285.056 729.977C282.561 727.302 278.359 730.573 280.34 733.648L443.836 987.454L263.472 745.344C261.286 742.41 256.75 745.199 258.38 748.474L392.964 1018.73L240.328 758.243C238.478 755.087 233.663 757.359 234.923 760.794L338.96 1044.21L215.906 768.518C214.414 765.177 209.378 766.906 210.253 770.459L282.48 1063.6L190.501 776.044C189.387 772.559 184.191 773.724 184.67 777.351L224.21 1076.66L164.423 780.729C163.699 777.143 158.406 777.729 158.483 781.387L164.858 1083.23L137.988 782.518C137.662 778.874 132.338 778.874 132.012 782.518L105.142 1083.23L111.517 781.387C111.594 777.729 106.301 777.143 105.577 780.729L45.7897 1076.66L85.3302 777.351C85.8094 773.724 80.6133 772.559 79.4987 776.044L-12.4801 1063.6L59.7467 770.459C60.622 766.906 55.5855 765.177 54.0943 768.518L-68.9597 1044.21L35.0767 760.794C36.3374 757.359 31.5217 755.087 29.6721 758.243L-122.964 1018.73L11.6196 748.474C13.2505 745.199 8.71404 742.41 6.52838 745.344L-173.836 987.454L-10.3398 733.648C-8.35857 730.573 -12.5607 727.302 -15.0559 729.977L-220.96 950.776L-30.535 716.497C-28.2274 713.658 -32.0443 709.945 -34.8186 712.33L-263.762 909.137L-48.7208 697.228C-46.115 694.66 -49.5002 690.549 -52.52 692.615L-301.725 863.042L-64.6765 676.075C-61.804 673.809 -64.7164 669.352 -67.9452 671.072L-334.386 813.051L-78.2084 653.296C-75.104 651.36 -77.5084 646.608 -80.9068 647.963L-361.349 759.77L-89.1522 629.166C-85.8537 627.583 -87.7209 622.596 -91.2477 623.569L-382.288 703.846L-97.3752 603.978C-93.9226 602.768 -95.2298 597.606 -98.8422 598.185L-396.947 645.958L-102.777 578.039C-99.2126 577.216 -99.944 571.942 -103.598 572.12L-405.149 586.809L-105.293 551.664C-101.66 551.238 -101.806 545.915 -105.458 545.69L-406.794 527.116L-104.892 525.171C-101.234 525.147 -100.794 519.841 -104.399 519.215L-401.863 467.605L-101.579 498.883C-97.9406 499.262 -96.9197 494.036 -100.434 493.018L-390.415 408.998L-95.3948 473.12C-91.8198 473.897 -90.2302 468.814 -93.6108 467.416L-372.589 352.005L-86.4135 448.193C-82.9456 449.358 -80.8066 444.482 -84.0129 442.72L-348.602 297.32L-74.7445 424.405C-71.4259 425.945 -68.7634 421.333 -71.7564 419.229L-318.744 245.605L-60.5295 402.045C-57.4005 403.941 -54.2468 399.65 -56.9902 397.23L-283.379 197.488L-43.941 381.385C-41.0395 383.614 -37.433 379.696 -39.8935 376.988L-242.935 153.555L-25.1805 362.675C-22.5417 365.21 -18.5261 361.712 -20.6738 358.751L-197.903 114.337L-4.47554 346.143C-2.13158 348.952 2.24439 345.918 0.43558 342.738L-148.831 80.3103L17.9224 331.989C19.9432 335.038 24.6264 332.504 23.1784 329.144L-96.3128 51.8891L41.7416 320.384C43.4145 323.638 48.3481 321.634 47.2785 318.135L-40.9871 29.4177L66.6928 311.47C67.9976 314.888 73.1217 313.439 72.4435 309.844L16.4749 13.169L92.4731 305.355C93.3941 308.896 98.6464 308.019 98.3678 304.372L75.3755 3.34021L118.77 302.113C119.295 305.734 124.612 305.441 124.737 301.784L135 0.0506592Z" fill="url(#paint0_linear_33_173)"/>
<defs>
<linearGradient id="paint0_linear_33_173" x1="135" y1="0.0506592" x2="135" y2="1084.05" gradientUnits="userSpaceOnUse">
<stop stop-color="#6D00FF"/>
<stop offset="1" stop-color="white"/>
</linearGradient>
</defs>
</svg>
