<svg width="667" height="441" viewBox="0 0 667 441" fill="none" xmlns="http://www.w3.org/2000/svg">
<path d="M332.5 -912L353.311 -514.056C353.493 -510.574 358.466 -510.151 359.233 -513.551L446.998 -902.255L400.257 -506.517C399.848 -503.056 404.677 -501.798 406.009 -505.02L558.202 -873.299L445.253 -491.154C444.265 -487.811 448.813 -485.755 450.669 -488.705L662.913 -825.967L487.006 -468.406C485.467 -465.279 489.602 -462.484 491.931 -465.078L758.119 -761.619L524.314 -438.93C522.269 -436.107 525.872 -432.654 528.605 -434.818L841.08 -682.107L556.104 -403.573C553.611 -401.136 556.578 -397.124 559.638 -398.794L909.411 -589.718L581.461 -363.352C578.592 -361.372 580.839 -356.915 584.137 -358.044L961.145 -487.11L599.656 -319.424C596.494 -317.957 597.955 -313.185 601.396 -313.741L994.794 -377.235L610.165 -273.053C606.801 -272.141 607.435 -267.191 610.92 -267.157L1009.39 -263.254L612.687 -225.572C609.217 -225.243 609.005 -220.257 612.435 -219.634L1004.51 -148.445L607.148 -178.349C603.672 -178.61 602.62 -173.732 605.896 -172.539L980.303 -36.1125L593.708 -132.741C590.326 -133.586 588.465 -128.956 591.492 -127.226L937.457 70.5131L572.753 -90.0603C569.563 -91.4649 566.946 -87.2155 569.637 -84.9991L877.208 168.364L544.887 -51.535C541.98 -53.4586 538.683 -49.7123 540.96 -47.0732L801.289 254.625L510.911 -18.2732C508.37 -20.6604 504.488 -17.5253 506.286 -14.5393L711.883 326.815L471.802 8.76813C469.702 5.98596 465.345 8.41974 466.613 11.6668L611.563 382.857L428.686 28.8111C427.086 25.714 422.38 27.3765 423.081 30.7911L503.215 421.139L382.802 41.2791C381.749 37.9562 376.83 38.7995 376.944 42.2835L389.956 440.559L335.472 45.8133C334.995 42.3602 330.005 42.3602 329.528 45.8133L275.044 440.559L288.056 42.2835C288.17 38.7996 283.251 37.9561 282.198 41.279L161.785 421.139L241.919 30.7911C242.62 27.3765 237.914 25.714 236.314 28.811L53.4369 382.857L198.387 11.6668C199.655 8.41974 195.298 5.98596 193.198 8.76813L-46.8829 326.815L158.714 -14.5392C160.512 -17.5253 156.63 -20.6604 154.089 -18.2732L-136.289 254.625L124.04 -47.0732C126.317 -49.7123 123.02 -53.4586 120.113 -51.535L-212.208 168.364L95.3632 -84.9991C98.0537 -87.2154 95.4372 -91.4649 92.2469 -90.0603L-272.457 70.5131L73.5084 -127.226C76.5348 -128.956 74.6741 -133.586 71.2923 -132.741L-315.303 -36.1125L59.1043 -172.539C62.3795 -173.732 61.3282 -178.61 57.8521 -178.349L-339.513 -148.445L52.5654 -219.634C55.9951 -220.257 55.7834 -225.243 52.3131 -225.572L-344.39 -263.254L54.0796 -267.157C57.5653 -267.191 58.1992 -272.141 54.8346 -273.053L-329.794 -377.235L63.6035 -313.741C67.0448 -313.185 68.5061 -317.957 65.344 -319.424L-296.145 -487.11L80.8631 -358.044C84.161 -356.915 86.4077 -361.372 83.5389 -363.352L-244.411 -589.718L105.362 -398.794C108.421 -397.124 111.389 -401.136 108.896 -403.573L-176.08 -682.107L136.395 -434.818C139.128 -432.654 142.731 -436.107 140.686 -438.93L-93.119 -761.619L173.069 -465.078C175.398 -462.484 179.533 -465.279 177.994 -468.406L2.08667 -825.967L214.331 -488.705C216.187 -485.755 220.735 -487.811 219.747 -491.154L106.798 -873.299L258.991 -505.02C260.323 -501.798 265.152 -503.055 264.743 -506.517L218.002 -902.255L305.767 -513.551C306.534 -510.151 311.507 -510.574 311.689 -514.056L332.5 -912Z" fill="url(#paint0_linear_1_47)"/>
<defs>
<linearGradient id="paint0_linear_1_47" x1="332.5" y1="337" x2="332.5" y2="-170.5" gradientUnits="userSpaceOnUse">
<stop stop-color="#6D00FF"/>
<stop offset="1" stop-color="white"/>
</linearGradient>
</defs>
</svg>
